<svg width="361" height="416" viewBox="0 0 361 416" fill="none" xmlns="http://www.w3.org/2000/svg">
<rect width="46.188" height="25.2885" transform="matrix(0.866025 -0.5 2.20305e-08 1 61 244.85)" fill="#979797"/>
<rect width="72.8664" height="46.1898" transform="matrix(0.866025 0.5 -0.866025 0.5 101.001 245.629)" fill="#249CC1"/>
<rect width="130.481" height="46.19" transform="matrix(0.866025 0.5 -2.20305e-08 1 130.45 41.5)" fill="#249CC1"/>
<rect width="57.6741" height="46.3" transform="matrix(0.866025 0.5 -0.866025 0.5 51.0969 192.9)" fill="#249CC1"/>
<rect width="195" height="195" transform="matrix(0.866025 -0.5 2.20305e-08 1 179.87 208)" fill="#38BFEA"/>
<path fill-rule="evenodd" clip-rule="evenodd" d="M348.75 110.5L179.875 13L130.401 41.5635L242.852 106.487L186.56 138.987L74.1098 74.0635L11 110.5L179.875 208L348.75 110.5Z" fill="#7DD3EE"/>
<rect width="65" height="129.97" transform="matrix(0.866025 -0.5 2.20305e-08 1 243 171.5)" fill="#7DD3EE"/>
<path fill-rule="evenodd" clip-rule="evenodd" d="M11 110.5L179.875 208V403L11 305.5L11 215.977L61 244.844V268.5L117.292 301L117.292 236L61 203.5V203.368L11 174.5V110.5Z" fill="#0D9CC9"/>
<path d="M11 110.5L74 74L186.5 139L202.869 129.5M11 110.5L180 208M11 110.5V174.5L47 195.289M130.5 46L237 110.5L202.869 129.5M130.5 46L180 13L349 110.5M130.5 46V87.5L202.869 129.5M349 110.5L299 139.5V269L243 301.5V172L180 208M349 110.5L348.5 305.5L180 403M180 208V403M61 268.5L117.5 301V255M61 268.5V245M61 268.5L101 245.5M61 245L11 216M61 245L96.7195 224M11 216V305.5L180 403M11 216L47 195.289M47 195.289L96.7195 224M96.7195 224L101 226.472M101 245.5V226.472M101 245.5L117.5 255M101 226.472L117.5 236V255" stroke="black" stroke-width="22"/>
</svg>
